<svg width="293.91875px" height="239.6px" xmlns="http://www.w3.org/2000/svg"
  viewBox="103.040625 -44.8 293.91875 239.6" style="background: rgba(0, 0, 0, 0);"
  preserveAspectRatio="xMidYMid">
  <defs>
    <filter id="editing-hole" x="-100%" y="-100%" width="300%" height="300%">
      <feFlood flood-color="#cccccc" result="black"></feFlood>
      <feMorphology operator="dilate" radius="2" in="SourceGraphic" result="erode"></feMorphology>
      <feGaussianBlur in="erode" stdDeviation="4" result="blur"></feGaussianBlur>
      <feOffset in="blur" dx="2" dy="2" result="offset"></feOffset>
      <feComposite operator="atop" in="offset" in2="black" result="merge"></feComposite>
      <feComposite operator="in" in="merge" in2="SourceGraphic" result="inner-shadow"></feComposite>
    </filter>
  </defs>
  <g filter="url(#editing-hole)">
    <g transform="translate(145.39000701904297, 111.74500274658203)">
      <path
        d="M26.12-8.30L26.12-61.52L11.47-53.13L10.25-61.91L27.10-72.27L35.40-72.27L35.40-8.30L50.78-8.30L50.78 0L10.74 0L10.74-8.30L26.12-8.30ZM67.63-5.37L67.63-5.37L67.63-5.37Q67.63-6.74 68.14-7.93L68.14-7.93L68.14-7.93Q68.65-9.13 69.56-10.03L69.56-10.03L69.56-10.03Q70.46-10.94 71.66-11.45L71.66-11.45L71.66-11.45Q72.85-11.96 74.22-11.96L74.22-11.96L74.22-11.96Q75.59-11.96 76.78-11.45L76.78-11.45L76.78-11.45Q77.98-10.94 78.88-10.03L78.88-10.03L78.88-10.03Q79.79-9.13 80.30-7.93L80.30-7.93L80.30-7.93Q80.81-6.74 80.81-5.37L80.81-5.37L80.81-5.37Q80.81-4.00 80.30-2.81L80.30-2.81L80.30-2.81Q79.79-1.61 78.88-0.71L78.88-0.71L78.88-0.71Q77.98 0.20 76.78 0.71L76.78 0.71L76.78 0.71Q75.59 1.22 74.22 1.22L74.22 1.22L74.22 1.22Q72.85 1.22 71.66 0.71L71.66 0.71L71.66 0.71Q70.46 0.20 69.56-0.71L69.56-0.71L69.56-0.71Q68.65-1.61 68.14-2.81L68.14-2.81L68.14-2.81Q67.63-4.00 67.63-5.37ZM99.37-33.45L99.37-71.29L138.67-71.29L138.67-62.01L138.67-62.01Q135.89-62.60 133.08-62.79L133.08-62.79L133.08-62.79Q130.27-62.99 127.20-62.99L127.20-62.99L108.40-62.99L108.40-44.92L108.40-44.92Q109.52-45.07 111.65-45.24L111.65-45.24L111.65-45.24Q113.77-45.41 116.46-45.41L116.46-45.41L116.46-45.41Q121.73-45.41 126.29-43.77L126.29-43.77L126.29-43.77Q130.86-42.14 134.28-39.18L134.28-39.18L134.28-39.18Q137.70-36.23 139.65-32.15L139.65-32.15L139.65-32.15Q141.60-28.08 141.60-23.19L141.60-23.19L141.60-23.19Q141.60-17.48 139.62-12.94L139.62-12.94L139.62-12.94Q137.65-8.40 134.11-5.25L134.11-5.25L134.11-5.25Q130.57-2.10 125.71-0.44L125.71-0.44L125.71-0.44Q120.85 1.22 115.14 1.22L115.14 1.22L115.14 1.22Q112.30 1.22 109.84 0.95L109.84 0.95L109.84 0.95Q107.37 0.68 105.10 0.07L105.10 0.07L105.10 0.07Q102.83-0.54 100.66-1.51L100.66-1.51L100.66-1.51Q98.49-2.49 96.19-3.91L96.19-3.91L97.66-14.16L97.66-14.16Q100.10-12.16 102.27-10.89L102.27-10.89L102.27-10.89Q104.44-9.62 106.57-8.89L106.57-8.89L106.57-8.89Q108.69-8.15 110.91-7.86L110.91-7.86L110.91-7.86Q113.13-7.57 115.72-7.57L115.72-7.57L115.72-7.57Q119.38-7.57 122.44-8.59L122.44-8.59L122.44-8.59Q125.49-9.62 127.69-11.57L127.69-11.57L127.69-11.57Q129.88-13.53 131.10-16.38L131.10-16.38L131.10-16.38Q132.32-19.24 132.32-22.95L132.32-22.95L132.32-22.95Q132.32-26.66 130.66-29.25L130.66-29.25L130.66-29.25Q129.00-31.84 126.44-33.47L126.44-33.47L126.44-33.47Q123.88-35.11 120.78-35.86L120.78-35.86L120.78-35.86Q117.68-36.62 114.75-36.62L114.75-36.62L114.75-36.62Q112.79-36.62 111.01-36.45L111.01-36.45L111.01-36.45Q109.23-36.28 107.40-35.91L107.40-35.91L107.40-35.91Q105.57-35.55 103.59-34.94L103.59-34.94L103.59-34.94Q101.61-34.33 99.37-33.45L99.37-33.45ZM187.74 0L174.61-18.36L161.87 0L150.88 0L150.88 0Q152.88-2.64 154.25-4.42L154.25-4.42L154.25-4.42Q155.62-6.20 156.67-7.62L156.67-7.62L156.67-7.62Q157.71-9.03 158.62-10.30L158.62-10.30L158.62-10.30Q159.52-11.57 160.64-13.18L160.64-13.18L169.34-25.78L161.62-36.62L161.62-36.62Q160.40-38.33 159.38-39.70L159.38-39.70L159.38-39.70Q158.35-41.06 157.23-42.48L157.23-42.48L157.23-42.48Q156.10-43.90 154.71-45.63L154.71-45.63L154.71-45.63Q153.32-47.36 151.37-49.80L151.37-49.80L162.60-49.80L175.29-32.18L187.26-49.80L198.24-49.80L198.24-49.80Q196.34-47.36 195.02-45.63L195.02-45.63L195.02-45.63Q193.70-43.90 192.63-42.46L192.63-42.46L192.63-42.46Q191.55-41.02 190.60-39.65L190.60-39.65L190.60-39.65Q189.65-38.28 188.48-36.62L188.48-36.62L180.52-24.90L188.96-13.18L188.96-13.18Q190.28-11.33 191.26-10.03L191.26-10.03L191.26-10.03Q192.24-8.74 193.31-7.37L193.31-7.37L193.31-7.37Q194.38-6.01 195.68-4.30L195.68-4.30L195.68-4.30Q196.97-2.59 198.97 0L198.97 0L187.74 0Z"
        fill="#ffffff"></path>
    </g>
  </g>
  <style>text {
    font-size: 64px;
    font-family: Arial Black;
    dominant-baseline: central;
    text-anchor: middle;
    }</style>
</svg>