<svg width="293.91875px" height="239.6px" xmlns="http://www.w3.org/2000/svg"
  viewBox="103.040625 -44.8 293.91875 239.6" style="background: rgba(0, 0, 0, 0);"
  preserveAspectRatio="xMidYMid">
  <defs>
    <filter id="editing-hole" x="-100%" y="-100%" width="300%" height="300%">
      <feFlood flood-color="#cccccc" result="black"></feFlood>
      <feMorphology operator="dilate" radius="2" in="SourceGraphic" result="erode"></feMorphology>
      <feGaussianBlur in="erode" stdDeviation="4" result="blur"></feGaussianBlur>
      <feOffset in="blur" dx="2" dy="2" result="offset"></feOffset>
      <feComposite operator="atop" in="offset" in2="black" result="merge"></feComposite>
      <feComposite operator="in" in="merge" in2="SourceGraphic" result="inner-shadow"></feComposite>
    </filter>
  </defs>
  <g filter="url(#editing-hole)">
    <g transform="translate(147.58500719070435, 111.86500549316406)">
      <path
        d="M52.73-8.79L52.73 0L5.86 0L5.86-8.30L5.86-8.30Q9.18-10.69 12.96-13.84L12.96-13.84L12.96-13.84Q16.75-16.99 20.48-20.61L20.48-20.61L20.48-20.61Q24.22-24.22 27.66-28.15L27.66-28.15L27.66-28.15Q31.10-32.08 33.74-36.04L33.74-36.04L33.74-36.04Q36.38-39.99 37.96-43.82L37.96-43.82L37.96-43.82Q39.55-47.66 39.55-51.03L39.55-51.03L39.55-51.03Q39.55-54.44 38.35-56.86L38.35-56.86L38.35-56.86Q37.16-59.28 35.21-60.82L35.21-60.82L35.21-60.82Q33.25-62.35 30.76-63.04L30.76-63.04L30.76-63.04Q28.27-63.72 25.63-63.72L25.63-63.72L25.63-63.72Q23.39-63.72 21.00-63.06L21.00-63.06L21.00-63.06Q18.60-62.40 16.33-61.18L16.33-61.18L16.33-61.18Q14.06-59.96 11.99-58.30L11.99-58.30L11.99-58.30Q9.91-56.64 8.30-54.69L8.30-54.69L6.10-62.99L6.10-62.99Q7.57-65.04 9.91-66.77L9.91-66.77L9.91-66.77Q12.26-68.51 15.11-69.80L15.11-69.80L15.11-69.80Q17.97-71.09 21.12-71.80L21.12-71.80L21.12-71.80Q24.27-72.51 27.34-72.51L27.34-72.51L27.34-72.51Q31.74-72.51 35.72-71.07L35.72-71.07L35.72-71.07Q39.70-69.63 42.72-66.97L42.72-66.97L42.72-66.97Q45.75-64.31 47.53-60.52L47.53-60.52L47.53-60.52Q49.32-56.74 49.32-52.00L49.32-52.00L49.32-52.00Q49.32-47.90 47.83-43.68L47.83-43.68L47.83-43.68Q46.34-39.45 43.85-35.33L43.85-35.33L43.85-35.33Q41.36-31.20 38.18-27.29L38.18-27.29L38.18-27.29Q35.01-23.39 31.64-19.87L31.64-19.87L31.64-19.87Q28.27-16.36 25-13.35L25-13.35L25-13.35Q21.73-10.35 19.04-8.06L19.04-8.06L31.49-8.06L31.49-8.06Q35.11-8.06 38.33-8.08L38.33-8.08L38.33-8.08Q41.55-8.11 44.26-8.18L44.26-8.18L44.26-8.18Q46.97-8.25 49.12-8.40L49.12-8.40L49.12-8.40Q51.27-8.54 52.73-8.79L52.73-8.79ZM67.63-5.37L67.63-5.37L67.63-5.37Q67.63-6.74 68.14-7.93L68.14-7.93L68.14-7.93Q68.65-9.13 69.56-10.03L69.56-10.03L69.56-10.03Q70.46-10.94 71.66-11.45L71.66-11.45L71.66-11.45Q72.85-11.96 74.22-11.96L74.22-11.96L74.22-11.96Q75.59-11.96 76.78-11.45L76.78-11.45L76.78-11.45Q77.98-10.94 78.88-10.03L78.88-10.03L78.88-10.03Q79.79-9.13 80.30-7.93L80.30-7.93L80.30-7.93Q80.81-6.74 80.81-5.37L80.81-5.37L80.81-5.37Q80.81-4.00 80.30-2.81L80.30-2.81L80.30-2.81Q79.79-1.61 78.88-0.71L78.88-0.71L78.88-0.71Q77.98 0.20 76.78 0.71L76.78 0.71L76.78 0.71Q75.59 1.22 74.22 1.22L74.22 1.22L74.22 1.22Q72.85 1.22 71.66 0.71L71.66 0.71L71.66 0.71Q70.46 0.20 69.56-0.71L69.56-0.71L69.56-0.71Q68.65-1.61 68.14-2.81L68.14-2.81L68.14-2.81Q67.63-4.00 67.63-5.37ZM144.04-36.13L144.04-36.13L144.04-36.13Q144.04-25.34 142.07-18.16L142.07-18.16L142.07-18.16Q140.09-10.99 136.67-6.67L136.67-6.67L136.67-6.67Q133.25-2.34 128.61-0.56L128.61-0.56L128.61-0.56Q123.97 1.22 118.65 1.22L118.65 1.22L118.65 1.22Q113.38 1.22 108.89-0.59L108.89-0.59L108.89-0.59Q104.39-2.39 101.15-6.62L101.15-6.62L101.15-6.62Q97.90-10.84 96.07-17.82L96.07-17.82L96.07-17.82Q94.24-24.80 94.24-35.16L94.24-35.16L94.24-35.16Q94.24-45.46 96.22-52.59L96.22-52.59L96.22-52.59Q98.19-59.72 101.64-64.14L101.64-64.14L101.64-64.14Q105.08-68.55 109.72-70.53L109.72-70.53L109.72-70.53Q114.36-72.51 119.63-72.51L119.63-72.51L119.63-72.51Q124.95-72.51 129.42-70.58L129.42-70.58L129.42-70.58Q133.89-68.65 137.13-64.33L137.13-64.33L137.13-64.33Q140.38-60.01 142.21-53.08L142.21-53.08L142.21-53.08Q144.04-46.14 144.04-36.13ZM134.28-34.91L134.28-34.91L134.28-34.91Q134.28-42.97 133.30-48.56L133.30-48.56L133.30-48.56Q132.32-54.15 130.42-57.64L130.42-57.64L130.42-57.64Q128.52-61.13 125.68-62.67L125.68-62.67L125.68-62.67Q122.85-64.21 119.14-64.21L119.14-64.21L119.14-64.21Q115.63-64.21 112.82-62.67L112.82-62.67L112.82-62.67Q110.01-61.13 108.06-57.76L108.06-57.76L108.06-57.76Q106.10-54.39 105.05-49.12L105.05-49.12L105.05-49.12Q104.00-43.85 104.00-36.38L104.00-36.38L104.00-36.38Q104.00-28.32 105.00-22.73L105.00-22.73L105.00-22.73Q106.01-17.14 107.93-13.67L107.93-13.67L107.93-13.67Q109.86-10.21 112.70-8.64L112.70-8.64L112.70-8.64Q115.53-7.08 119.14-7.08L119.14-7.08L119.14-7.08Q122.66-7.08 125.46-8.64L125.46-8.64L125.46-8.64Q128.27-10.21 130.22-13.55L130.22-13.55L130.22-13.55Q132.18-16.89 133.23-22.17L133.23-22.17L133.23-22.17Q134.28-27.44 134.28-34.91ZM187.74 0L174.61-18.36L161.87 0L150.88 0L150.88 0Q152.88-2.64 154.25-4.42L154.25-4.42L154.25-4.42Q155.62-6.20 156.67-7.62L156.67-7.62L156.67-7.62Q157.71-9.03 158.62-10.30L158.62-10.30L158.62-10.30Q159.52-11.57 160.64-13.18L160.64-13.18L169.34-25.78L161.62-36.62L161.62-36.62Q160.40-38.33 159.38-39.70L159.38-39.70L159.38-39.70Q158.35-41.06 157.23-42.48L157.23-42.48L157.23-42.48Q156.10-43.90 154.71-45.63L154.71-45.63L154.71-45.63Q153.32-47.36 151.37-49.80L151.37-49.80L162.60-49.80L175.29-32.18L187.26-49.80L198.24-49.80L198.24-49.80Q196.34-47.36 195.02-45.63L195.02-45.63L195.02-45.63Q193.70-43.90 192.63-42.46L192.63-42.46L192.63-42.46Q191.55-41.02 190.60-39.65L190.60-39.65L190.60-39.65Q189.65-38.28 188.48-36.62L188.48-36.62L180.52-24.90L188.96-13.18L188.96-13.18Q190.28-11.33 191.26-10.03L191.26-10.03L191.26-10.03Q192.24-8.74 193.31-7.37L193.31-7.37L193.31-7.37Q194.38-6.01 195.68-4.30L195.68-4.30L195.68-4.30Q196.97-2.59 198.97 0L198.97 0L187.74 0Z"
        fill="#ffffff"></path>
    </g>
  </g>
  <style>text {
    font-size: 64px;
    font-family: Arial Black;
    dominant-baseline: central;
    text-anchor: middle;
    }</style>
</svg>