<svg width="16" height="16" viewBox="0 0 16 16" fill="none" xmlns="http://www.w3.org/2000/svg">
    <path
        d="M12.243 3.70976L11.1765 4.77637L11.1764 4.77642C11.1634 4.78944 11.1634 4.81049 11.1764 4.8235L11.1765 4.82359C11.1894 4.83647 11.2105 4.83661 11.2236 4.82353L12.243 3.70976ZM12.243 3.70976C12.2561 3.6967 12.2772 3.6967 12.2903 3.70976L12.6438 3.35617L12.243 3.70976ZM10.4693 5.53061L10.1569 5.84303M10.4693 5.53061L2.28952 13.7104C2.49779 13.9187 2.83548 13.9187 3.04376 13.7104L10.5104 6.24375M10.4693 5.53061L10.1569 5.84305C10.1569 5.84305 10.1569 5.84304 10.1569 5.84303M10.4693 5.53061C10.4693 5.53063 10.4694 5.53066 10.4694 5.53068L10.6245 5.65841C10.7067 5.85255 10.6687 6.08551 10.5104 6.24375M10.1569 5.84303C10.1438 5.83004 10.1228 5.83005 10.1097 5.84306L2.6431 13.3097M10.1569 5.84303C10.1699 5.85604 10.1699 5.87717 10.1569 5.8902M2.6431 13.3097L2.28952 12.9561L2.64307 13.3097L2.6431 13.3097ZM2.6431 13.3097C2.62998 13.3228 2.63012 13.3439 2.64301 13.3568L2.64311 13.3569C2.65611 13.3699 2.67716 13.3699 2.69017 13.3569L2.6902 13.3568L10.1569 5.89023M10.1569 5.89023L10.5104 6.24375M10.1569 5.89023L10.1569 5.8902M10.1569 5.89023C10.1569 5.89022 10.1569 5.89021 10.1569 5.8902M10.5104 6.24375L10.1569 5.8902M12.2902 3.75693L11.2236 4.8235L12.2902 3.75693Z"
        fill="#09090B" stroke="#18181B" />
</svg>
    