<svg width="32" height="32" viewBox="0 0 32 32" fill="none" xmlns="http://www.w3.org/2000/svg">
    <rect x="-0.5" y="0.5" width="31" height="31" rx="15.5" transform="matrix(-1 0 0 1 31 0)"
        stroke="#D4D4D8" />
    <path
        d="M9.99999 16C9.99985 17.5775 10.6209 19.0915 11.7288 20.2144C12.8366 21.3373 14.3421 21.9788 15.9194 22H16C17.5323 22.0038 19.0073 21.4174 20.1187 20.3625C20.1665 20.3174 20.2048 20.2633 20.2317 20.2033C20.2585 20.1433 20.2732 20.0787 20.275 20.013C20.2769 19.9473 20.2658 19.882 20.2423 19.8206C20.2189 19.7592 20.1836 19.7031 20.1384 19.6553C20.0933 19.6076 20.0392 19.5692 19.9792 19.5424C19.9192 19.5156 19.8546 19.5009 19.7889 19.499C19.7232 19.4972 19.6579 19.5083 19.5965 19.5318C19.5351 19.5552 19.479 19.5905 19.4312 19.6357C18.7164 20.3098 17.8187 20.7584 16.8503 20.9254C15.882 21.0924 14.8859 20.9703 13.9866 20.5745C13.0872 20.1786 12.3244 19.5265 11.7934 18.6997C11.2625 17.8729 10.987 16.9079 11.0013 15.9254C11.0156 14.9428 11.3191 13.9863 11.8738 13.1753C12.4286 12.3642 13.21 11.7346 14.1205 11.3651C15.0311 10.9956 16.0303 10.9026 16.9933 11.0976C17.9564 11.2927 18.8407 11.7672 19.5356 12.4619C19.5407 12.4674 19.5461 12.4726 19.5519 12.4775L20.2106 13.0807L19.1481 14.1432C19.0771 14.2128 19.0285 14.302 19.0085 14.3994C18.9885 14.4968 18.998 14.598 19.0358 14.69C19.0736 14.7819 19.1379 14.8606 19.2206 14.9158C19.3033 14.971 19.4006 15.0004 19.5 15H22.5C22.6326 15 22.7598 14.9473 22.8535 14.8536C22.9473 14.7598 23 14.6326 23 14.5V11.5C23.0006 11.4009 22.9716 11.3038 22.9169 11.2211C22.8622 11.1384 22.7841 11.0739 22.6925 11.0357C22.601 10.9975 22.5002 10.9874 22.403 11.0066C22.3057 11.0259 22.2163 11.0736 22.1462 11.1438L20.9181 12.375L20.2344 11.75C19.3944 10.9133 18.3253 10.3442 17.1622 10.1145C15.999 9.8849 14.7939 10.005 13.6989 10.4597C12.6039 10.9144 11.6682 11.6833 11.0099 12.6694C10.3516 13.6554 10.0002 14.8144 9.99999 16Z"
        fill="black" />
</svg>
    