<svg width="32" height="32" viewBox="0 0 32 32" fill="none" xmlns="http://www.w3.org/2000/svg">
    <rect x="0.5" y="0.5" width="31" height="31" rx="15.5" stroke="#D4D4D8" />
    <path
        d="M22 16C22.0002 17.5775 21.3791 19.0915 20.2712 20.2144C19.1634 21.3373 17.6579 21.9788 16.0806 22H16C14.4677 22.0038 12.9927 21.4174 11.8813 20.3625C11.8335 20.3174 11.7952 20.2633 11.7683 20.2033C11.7415 20.1433 11.7268 20.0787 11.725 20.013C11.7231 19.9473 11.7342 19.882 11.7577 19.8206C11.7811 19.7592 11.8164 19.7031 11.8616 19.6553C11.9067 19.6076 11.9608 19.5692 12.0208 19.5424C12.0808 19.5156 12.1454 19.5009 12.2111 19.499C12.2768 19.4972 12.3421 19.5083 12.4035 19.5318C12.4649 19.5552 12.521 19.5905 12.5688 19.6357C13.2836 20.3098 14.1813 20.7584 15.1497 20.9254C16.118 21.0924 17.1141 20.9703 18.0134 20.5745C18.9128 20.1786 19.6756 19.5265 20.2066 18.6997C20.7375 17.8729 21.013 16.9079 20.9987 15.9254C20.9844 14.9428 20.6809 13.9863 20.1262 13.1753C19.5714 12.3642 18.79 11.7346 17.8795 11.3651C16.9689 10.9956 15.9697 10.9026 15.0067 11.0976C14.0436 11.2927 13.1593 11.7672 12.4644 12.4619C12.4593 12.4674 12.4539 12.4726 12.4481 12.4775L11.7894 13.0807L12.8519 14.1432C12.9229 14.2128 12.9715 14.302 12.9915 14.3994C13.0115 14.4968 13.002 14.598 12.9642 14.69C12.9264 14.7819 12.8621 14.8606 12.7794 14.9158C12.6967 14.971 12.5994 15.0004 12.5 15H9.50001C9.3674 15 9.24022 14.9473 9.14646 14.8536C9.05269 14.7598 9.00001 14.6326 9.00001 14.5V11.5C8.99943 11.4009 9.02836 11.3038 9.0831 11.2211C9.13784 11.1384 9.21594 11.0739 9.30745 11.0357C9.39897 10.9975 9.49977 10.9874 9.59705 11.0066C9.69432 11.0259 9.78368 11.0736 9.85376 11.1438L11.0819 12.375L11.7656 11.75C12.6056 10.9133 13.6747 10.3442 14.8378 10.1145C16.001 9.8849 17.2061 10.005 18.3011 10.4597C19.3961 10.9144 20.3318 11.6833 20.9901 12.6694C21.6484 13.6554 21.9998 14.8144 22 16Z"
        fill="black" />
</svg>
    